<svg width="196" height="156" viewBox="0 0 196 156" fill="none" xmlns="http://www.w3.org/2000/svg">
<g filter="url(#filter0_ii)">
<path d="M195.999 153C195.999 154.657 194.656 156 192.999 156C191.342 156 189.999 154.657 189.999 153L189.999 92.9998L189.999 13.9998C189.999 9.58148 186.417 5.99976 181.999 5.99975L2.99922 5.99974C1.34236 5.99974 -0.000780226 4.6566 -0.000780081 2.99974C-0.000779936 1.34288 1.34236 -0.000261158 2.99922 -0.000261013L189.999 -0.000244665C193.313 -0.000244375 195.999 2.68605 195.999 5.99976L195.999 92.9998L195.999 153Z" fill="url(#paint0_linear)"/>
</g>
<defs>
<filter id="filter0_ii" x="-0.000793457" y="-1.00024" width="196" height="158" filterUnits="userSpaceOnUse" color-interpolation-filters="sRGB">
<feFlood flood-opacity="0" result="BackgroundImageFix"/>
<feBlend mode="normal" in="SourceGraphic" in2="BackgroundImageFix" result="shape"/>
<feColorMatrix in="SourceAlpha" type="matrix" values="0 0 0 0 0 0 0 0 0 0 0 0 0 0 0 0 0 0 127 0" result="hardAlpha"/>
<feOffset dy="-1"/>
<feGaussianBlur stdDeviation="1.5"/>
<feComposite in2="hardAlpha" operator="arithmetic" k2="-1" k3="1"/>
<feColorMatrix type="matrix" values="0 0 0 0 0.7125 0 0 0 0 0.242844 0 0 0 0 0.0415625 0 0 0 0.58 0"/>
<feBlend mode="color-burn" in2="shape" result="effect1_innerShadow"/>
<feColorMatrix in="SourceAlpha" type="matrix" values="0 0 0 0 0 0 0 0 0 0 0 0 0 0 0 0 0 0 127 0" result="hardAlpha"/>
<feOffset dy="1"/>
<feGaussianBlur stdDeviation="1"/>
<feComposite in2="hardAlpha" operator="arithmetic" k2="-1" k3="1"/>
<feColorMatrix type="matrix" values="0 0 0 0 0.0358507 0 0 0 0 0.107245 0 0 0 0 0.245833 0 0 0 1 0"/>
<feBlend mode="multiply" in2="effect1_innerShadow" result="effect2_innerShadow"/>
</filter>
<linearGradient id="paint0_linear" x1="195.999" y1="156" x2="39.9992" y2="-0.000259676" gradientUnits="userSpaceOnUse">
<stop stop-color="#FFC15E"/>
<stop offset="0.260417" stop-color="#FB689A"/>
<stop offset="0.548969" stop-color="#4F8BFF"/>
<stop offset="0.802083" stop-color="#B95CFF"/>
<stop offset="1" stop-color="#FF58CF"/>
</linearGradient>
</defs>
</svg>
