<svg width="156" height="136" viewBox="0 0 156 136" fill="none" xmlns="http://www.w3.org/2000/svg">
<g filter="url(#filter0_ii)">
<path d="M-0.000488281 3C-0.000488281 1.34314 1.34266 0 2.99951 0C4.65637 0 5.99951 1.34315 5.99951 3L5.99951 43L5.99951 122C5.99951 126.418 9.58123 130 13.9995 130L153 130C154.656 130 156 131.343 156 133C156 134.657 154.656 136 153 136L5.99951 136C2.6858 136 -0.000488281 133.314 -0.000488281 130L-0.000488281 43L-0.000488281 3Z" fill="url(#paint0_linear)"/>
</g>
<defs>
<filter id="filter0_ii" x="-0.000488281" y="-1" width="156" height="138" filterUnits="userSpaceOnUse" color-interpolation-filters="sRGB">
<feFlood flood-opacity="0" result="BackgroundImageFix"/>
<feBlend mode="normal" in="SourceGraphic" in2="BackgroundImageFix" result="shape"/>
<feColorMatrix in="SourceAlpha" type="matrix" values="0 0 0 0 0 0 0 0 0 0 0 0 0 0 0 0 0 0 127 0" result="hardAlpha"/>
<feOffset dy="-1"/>
<feGaussianBlur stdDeviation="1.5"/>
<feComposite in2="hardAlpha" operator="arithmetic" k2="-1" k3="1"/>
<feColorMatrix type="matrix" values="0 0 0 0 0.7125 0 0 0 0 0.242844 0 0 0 0 0.0415625 0 0 0 0.58 0"/>
<feBlend mode="color-burn" in2="shape" result="effect1_innerShadow"/>
<feColorMatrix in="SourceAlpha" type="matrix" values="0 0 0 0 0 0 0 0 0 0 0 0 0 0 0 0 0 0 127 0" result="hardAlpha"/>
<feOffset dy="1"/>
<feGaussianBlur stdDeviation="1"/>
<feComposite in2="hardAlpha" operator="arithmetic" k2="-1" k3="1"/>
<feColorMatrix type="matrix" values="0 0 0 0 0.0358507 0 0 0 0 0.107245 0 0 0 0 0.245833 0 0 0 1 0"/>
<feBlend mode="multiply" in2="effect1_innerShadow" result="effect2_innerShadow"/>
</filter>
<linearGradient id="paint0_linear" x1="-0.000475701" y1="-20" x2="156" y2="136" gradientUnits="userSpaceOnUse">
<stop stop-color="#FFC15E"/>
<stop offset="0.260417" stop-color="#FB689A"/>
<stop offset="0.548969" stop-color="#4F8BFF"/>
<stop offset="0.802083" stop-color="#B95CFF"/>
<stop offset="1" stop-color="#FF58CF"/>
</linearGradient>
</defs>
</svg>
