<svg xmlns="http://www.w3.org/2000/svg" width="493.968" height="121.333" viewBox="0 0 493.968 121.333">
  <g id="bscscan-logo" transform="translate(-219.378 -213.334)">
    <g id="bscscan-logo-circle">
      <path id="Path_1" data-name="Path 1" d="M244.6,271.1a5.144,5.144,0,0,1,5.168-5.143l8.568.028a5.151,5.151,0,0,1,5.151,5.151v32.4c.965-.286,2.2-.591,3.559-.911a4.292,4.292,0,0,0,3.309-4.177V258.261a5.152,5.152,0,0,1,5.151-5.152H284.1a5.152,5.152,0,0,1,5.151,5.152v37.3s2.15-.87,4.243-1.754a4.3,4.3,0,0,0,2.625-3.957V245.383a5.151,5.151,0,0,1,5.15-5.151h8.585A5.151,5.151,0,0,1,315,245.383V282c7.443-5.394,14.986-11.882,20.972-19.683a8.646,8.646,0,0,0,1.316-8.072,60.636,60.636,0,1,0-109.855,50.108,7.668,7.668,0,0,0,7.316,3.79c1.624-.143,3.646-.345,6.05-.627a4.29,4.29,0,0,0,3.805-4.258V271.1" fill="#ffffff"/>
      <path id="Path_2" data-name="Path 2" d="M244.417,323.061A60.656,60.656,0,0,0,340.756,274c0-1.4-.065-2.778-.158-4.152-22.163,33.055-63.085,48.508-96.181,53.213" fill="#f0b90b"/>
    </g>
    <path id="Path_121" data-name="Path 121" d="M13.832-3.976H5.908L4.508,0H.336l7.28-19.544h4.508L19.376,0H15.2Zm-1.064-3L9.856-15.316,6.944-6.972Zm26.908-8.736a6.663,6.663,0,0,1,3.528.952A6.432,6.432,0,0,1,45.654-12a9.565,9.565,0,0,1,.882,4.242,9.565,9.565,0,0,1-.882,4.242A6.432,6.432,0,0,1,43.2-.756,6.663,6.663,0,0,1,39.676.2,5.828,5.828,0,0,1,36.33-.742a5.132,5.132,0,0,1-1.974-2.506V7.392H30.408v-22.9h3.948v3.22a5.056,5.056,0,0,1,1.974-2.492A5.893,5.893,0,0,1,39.676-15.708Zm-1.232,3.444a3.906,3.906,0,0,0-2.954,1.218,4.569,4.569,0,0,0-1.162,3.29A4.529,4.529,0,0,0,35.49-4.494a3.906,3.906,0,0,0,2.954,1.218,3.884,3.884,0,0,0,2.968-1.19,4.61,4.61,0,0,0,1.12-3.29,4.661,4.661,0,0,0-1.12-3.3A3.862,3.862,0,0,0,38.444-12.264Zm16.24-.28a6.489,6.489,0,0,1,2.3-2.338,6.1,6.1,0,0,1,3.192-.854v4.228H59.024q-4.34,0-4.34,4.032V0H50.736V-15.512h3.948Zm16.24-3.164A8.6,8.6,0,0,1,75-14.756,6.968,6.968,0,0,1,77.84-12a8.379,8.379,0,0,1,1.036,4.242A8.3,8.3,0,0,1,77.84-3.528,7.087,7.087,0,0,1,75-.77,8.5,8.5,0,0,1,70.924.2,8.5,8.5,0,0,1,66.85-.77a7.087,7.087,0,0,1-2.842-2.758,8.3,8.3,0,0,1-1.036-4.228A8.379,8.379,0,0,1,64.008-12a6.968,6.968,0,0,1,2.842-2.758A8.6,8.6,0,0,1,70.924-15.708Zm0,3.416a3.787,3.787,0,0,0-2.8,1.162,4.6,4.6,0,0,0-1.148,3.374,4.6,4.6,0,0,0,1.148,3.374,3.787,3.787,0,0,0,2.8,1.162,3.787,3.787,0,0,0,2.8-1.162,4.6,4.6,0,0,0,1.148-3.374,4.6,4.6,0,0,0-1.148-3.374A3.787,3.787,0,0,0,70.924-12.292Zm18.228-3.416a5.893,5.893,0,0,1,3.346.924,5.216,5.216,0,0,1,2,2.492V-20.72h3.92V0H94.5V-3.248a5.3,5.3,0,0,1-2,2.506A5.828,5.828,0,0,1,89.152.2a6.663,6.663,0,0,1-3.528-.952,6.432,6.432,0,0,1-2.45-2.758,9.565,9.565,0,0,1-.882-4.242A9.565,9.565,0,0,1,83.174-12a6.432,6.432,0,0,1,2.45-2.758A6.663,6.663,0,0,1,89.152-15.708Zm1.232,3.444a3.861,3.861,0,0,0-2.968,1.2,4.661,4.661,0,0,0-1.12,3.3,4.61,4.61,0,0,0,1.12,3.29,3.884,3.884,0,0,0,2.968,1.19,3.906,3.906,0,0,0,2.954-1.218A4.529,4.529,0,0,0,94.5-7.756a4.569,4.569,0,0,0-1.162-3.29A3.906,3.906,0,0,0,90.384-12.264Zm27.86-3.248V0H114.3V-3.136a4.942,4.942,0,0,1-2.03,2.45A6.034,6.034,0,0,1,109,.2a5.493,5.493,0,0,1-4.284-1.764,7.083,7.083,0,0,1-1.6-4.928v-9.016h3.92v8.568A4.051,4.051,0,0,0,108-4.074a3.35,3.35,0,0,0,2.576,1.022,3.516,3.516,0,0,0,2.716-1.092A4.46,4.46,0,0,0,114.3-7.28v-8.232Zm11.956-.2a7.676,7.676,0,0,1,5,1.624A7.1,7.1,0,0,1,137.7-9.66h-4.172a3.221,3.221,0,0,0-1.148-1.946,3.526,3.526,0,0,0-2.268-.714,3.383,3.383,0,0,0-2.618,1.162,4.916,4.916,0,0,0-1.05,3.4,4.916,4.916,0,0,0,1.05,3.4,3.383,3.383,0,0,0,2.618,1.162,3.525,3.525,0,0,0,2.268-.714,3.221,3.221,0,0,0,1.148-1.946H137.7A7.1,7.1,0,0,1,135.2-1.428,7.676,7.676,0,0,1,130.2.2a8.257,8.257,0,0,1-4.032-.966,6.79,6.79,0,0,1-2.744-2.758,8.681,8.681,0,0,1-.98-4.228,8.762,8.762,0,0,1,.98-4.242,6.679,6.679,0,0,1,2.744-2.758A8.355,8.355,0,0,1,130.2-15.708Zm19.992,12.32V0H148.12a5.732,5.732,0,0,1-3.99-1.26q-1.386-1.26-1.386-4.2v-6.72h-2.156v-3.332h2.156v-3.836h3.948v3.836h3.472v3.332h-3.472V-5.4a2.186,2.186,0,0,0,.448,1.568,2.091,2.091,0,0,0,1.512.448Zm18.9-12.32a8.6,8.6,0,0,1,4.074.952A6.968,6.968,0,0,1,176.008-12a8.379,8.379,0,0,1,1.036,4.242,8.3,8.3,0,0,1-1.036,4.228A7.087,7.087,0,0,1,173.166-.77,8.5,8.5,0,0,1,169.092.2a8.5,8.5,0,0,1-4.074-.966,7.087,7.087,0,0,1-2.842-2.758,8.3,8.3,0,0,1-1.036-4.228A8.379,8.379,0,0,1,162.176-12a6.968,6.968,0,0,1,2.842-2.758A8.6,8.6,0,0,1,169.092-15.708Zm0,3.416a3.787,3.787,0,0,0-2.8,1.162,4.6,4.6,0,0,0-1.148,3.374,4.6,4.6,0,0,0,1.148,3.374,3.787,3.787,0,0,0,2.8,1.162,3.787,3.787,0,0,0,2.8-1.162,4.6,4.6,0,0,0,1.148-3.374,4.6,4.6,0,0,0-1.148-3.374A3.787,3.787,0,0,0,169.092-12.292ZM188.916-18.2a3.373,3.373,0,0,0-2.436.5,2.767,2.767,0,0,0-.7,2.156v.028h3.136v3.332H185.78V0h-3.948V-12.18h-1.988v-3.332h1.988v-.364a5.6,5.6,0,0,1,1.582-4.27,6.584,6.584,0,0,1,4.69-1.5q.532,0,.812.028Zm15.9,2.212v4.144h6.692v3.612H204.82v4.4h7.532V0h-12.32V-19.8h12.32v3.808Zm20.5,11.872V0H223.16a6.2,6.2,0,0,1-4.27-1.358q-1.526-1.358-1.526-4.494v-5.74h-2.1v-4.032h2.1V-19.46h4.788v3.836h3.136v4.032h-3.136v5.824a1.755,1.755,0,0,0,.378,1.288,1.807,1.807,0,0,0,1.274.364Zm14-11.676A5.408,5.408,0,0,1,243.586-14a7.188,7.188,0,0,1,1.582,4.928V0H240.38V-8.512a3.444,3.444,0,0,0-.826-2.45,2.869,2.869,0,0,0-2.2-.882,2.992,2.992,0,0,0-2.31.924,3.737,3.737,0,0,0-.854,2.632V0H229.4V-20.72h4.788v7.952a5.154,5.154,0,0,1,2-2.212A5.872,5.872,0,0,1,239.316-15.792Zm25.256,7.56a6.605,6.605,0,0,1-.14,1.288H253.6a3.621,3.621,0,0,0,.9,2.534,2.89,2.89,0,0,0,2.072.77,2.832,2.832,0,0,0,1.764-.532,2.484,2.484,0,0,0,.924-1.372h5.068a6.622,6.622,0,0,1-1.344,2.954,7.163,7.163,0,0,1-2.632,2.044A8.334,8.334,0,0,1,256.788.2a8.4,8.4,0,0,1-4.074-.966,6.9,6.9,0,0,1-2.786-2.786,8.644,8.644,0,0,1-1.008-4.256,8.722,8.722,0,0,1,.994-4.27,6.812,6.812,0,0,1,2.786-2.772,8.478,8.478,0,0,1,4.088-.966,8.475,8.475,0,0,1,4.088.952,6.726,6.726,0,0,1,2.73,2.674A7.96,7.96,0,0,1,264.572-8.232Zm-4.844-.728a2.878,2.878,0,0,0-.826-2.31,3.041,3.041,0,0,0-2.114-.77,3.135,3.135,0,0,0-2.184.784,3.282,3.282,0,0,0-.98,2.3Zm13.524-3.724a6.794,6.794,0,0,1,2.31-2.268,5.9,5.9,0,0,1,3.066-.84v5.124h-1.372a4.732,4.732,0,0,0-2.954.812,3.262,3.262,0,0,0-1.05,2.744V0h-4.788V-15.624h4.788Zm14.476-3.136a7.169,7.169,0,0,1,4.746,1.484,6.448,6.448,0,0,1,2.226,3.92h-4.48a2.482,2.482,0,0,0-.882-1.5,2.678,2.678,0,0,0-1.722-.546,1.882,1.882,0,0,0-1.232.35,1.221,1.221,0,0,0-.42.994,1.166,1.166,0,0,0,.77,1.092,12.278,12.278,0,0,0,2.422.728,24.053,24.053,0,0,1,2.94.854,4.85,4.85,0,0,1,1.988,1.414,3.907,3.907,0,0,1,.84,2.632,4.036,4.036,0,0,1-.728,2.38,4.793,4.793,0,0,1-2.1,1.624A8.206,8.206,0,0,1,288.848.2a8.364,8.364,0,0,1-5.068-1.4,5.907,5.907,0,0,1-2.324-4h4.62a2.079,2.079,0,0,0,.854,1.54,3.215,3.215,0,0,0,1.918.532,1.786,1.786,0,0,0,1.232-.378,1.273,1.273,0,0,0,.42-.994,1.2,1.2,0,0,0-.77-1.162,14.158,14.158,0,0,0-2.506-.742,20.039,20.039,0,0,1-2.856-.784,4.715,4.715,0,0,1-1.932-1.358,3.783,3.783,0,0,1-.812-2.562,4.181,4.181,0,0,1,1.6-3.4A6.955,6.955,0,0,1,287.728-15.82Zm18.312,0a7.76,7.76,0,0,1,5.068,1.666,7.387,7.387,0,0,1,2.576,4.578h-5.068a2.674,2.674,0,0,0-.924-1.568,2.735,2.735,0,0,0-1.764-.56,2.559,2.559,0,0,0-2.072.994,4.487,4.487,0,0,0-.812,2.9,4.487,4.487,0,0,0,.812,2.9,2.559,2.559,0,0,0,2.072.994,2.735,2.735,0,0,0,1.764-.56,2.674,2.674,0,0,0,.924-1.568h5.068a7.387,7.387,0,0,1-2.576,4.578A7.76,7.76,0,0,1,306.04.2a8.4,8.4,0,0,1-4.074-.966,6.9,6.9,0,0,1-2.786-2.786,8.644,8.644,0,0,1-1.008-4.256,8.722,8.722,0,0,1,.994-4.27,6.812,6.812,0,0,1,2.786-2.772A8.478,8.478,0,0,1,306.04-15.82Zm17.472,0a5.656,5.656,0,0,1,3.08.812,4.882,4.882,0,0,1,1.9,2.212v-2.828h4.76V0H328.5V-2.828a4.882,4.882,0,0,1-1.9,2.212,5.656,5.656,0,0,1-3.08.812,6.328,6.328,0,0,1-3.458-.966,6.609,6.609,0,0,1-2.408-2.786,9.656,9.656,0,0,1-.882-4.256,9.634,9.634,0,0,1,.882-4.27,6.625,6.625,0,0,1,2.408-2.772A6.328,6.328,0,0,1,323.512-15.82Zm1.54,4.2a3.225,3.225,0,0,0-2.478,1.008,3.952,3.952,0,0,0-.938,2.8,3.952,3.952,0,0,0,.938,2.8A3.225,3.225,0,0,0,325.052-4,3.237,3.237,0,0,0,327.53-5.04a3.9,3.9,0,0,0,.966-2.772,3.891,3.891,0,0,0-.966-2.786A3.259,3.259,0,0,0,325.052-11.62Zm22.82-4.172A5.408,5.408,0,0,1,352.142-14a7.188,7.188,0,0,1,1.582,4.928V0h-4.788V-8.512a3.444,3.444,0,0,0-.826-2.45,2.869,2.869,0,0,0-2.2-.882,2.992,2.992,0,0,0-2.31.924,3.737,3.737,0,0,0-.854,2.632V0H337.96V-15.624h4.788v2.856a5.154,5.154,0,0,1,2-2.212A5.872,5.872,0,0,1,347.872-15.792Z" transform="translate(359.622 315)" fill="#ffffff" opacity="0.75"/>
    <path id="Path_122" data-name="Path 122" d="M29.77-23.66a11.133,11.133,0,0,1,6.663,3.933,11.162,11.162,0,0,1,2.5,7.248,11.451,11.451,0,0,1-3.868,9.133Q31.2,0,23.855,0H4.16V-45.89H23.465q6.955,0,10.692,3.055a10.46,10.46,0,0,1,3.737,8.58,10.7,10.7,0,0,1-2.243,7.02A10.429,10.429,0,0,1,29.77-23.66ZM13.325-26.65H21.58a7.854,7.854,0,0,0,5.233-1.528A5.454,5.454,0,0,0,28.6-32.565a5.6,5.6,0,0,0-1.755-4.42q-1.755-1.56-5.4-1.56H13.325Zm8.71,19.175a8.635,8.635,0,0,0,5.59-1.593,5.651,5.651,0,0,0,1.95-4.648,5.8,5.8,0,0,0-1.983-4.713,8.531,8.531,0,0,0-5.622-1.657H13.325v12.61Zm35.75-28.99q6.565,0,10.53,3.315a14.356,14.356,0,0,1,4.94,8.84h-8.58a7.133,7.133,0,0,0-2.34-4.16,7.036,7.036,0,0,0-4.745-1.56,5.453,5.453,0,0,0-3.64,1.1,3.721,3.721,0,0,0-1.3,2.99,3.039,3.039,0,0,0,1.04,2.405,7.492,7.492,0,0,0,2.6,1.43q1.56.52,4.485,1.235a46.124,46.124,0,0,1,6.662,1.917,11.024,11.024,0,0,1,4.42,3.185A8.78,8.78,0,0,1,73.71-9.88,9.088,9.088,0,0,1,70.1-2.4Q66.5.455,60.385.455,53.365.455,49.14-2.7A13.252,13.252,0,0,1,44-11.7H52.78a5.93,5.93,0,0,0,2.34,4.193A8.486,8.486,0,0,0,60.385-5.98,5.1,5.1,0,0,0,63.96-7.118a3.835,3.835,0,0,0,1.235-2.957,3.267,3.267,0,0,0-1.073-2.535,7.24,7.24,0,0,0-2.665-1.495q-1.593-.52-4.518-1.235a50.917,50.917,0,0,1-6.532-1.852,10.43,10.43,0,0,1-4.29-3.023,8.492,8.492,0,0,1-1.788-5.72,9.365,9.365,0,0,1,3.575-7.6Q51.48-36.465,57.785-36.465Zm38.935,0a17.82,17.82,0,0,1,11.6,3.77,16.47,16.47,0,0,1,5.817,10.27h-9.685a7.477,7.477,0,0,0-2.665-4.517A8.184,8.184,0,0,0,96.525-28.6a7.854,7.854,0,0,0-6.077,2.7q-2.437,2.7-2.437,7.9t2.438,7.9a7.854,7.854,0,0,0,6.077,2.7,8.184,8.184,0,0,0,5.265-1.657,7.477,7.477,0,0,0,2.665-4.517h9.685a16.47,16.47,0,0,1-5.817,10.27A17.82,17.82,0,0,1,96.72.455a19.168,19.168,0,0,1-9.36-2.243,15.763,15.763,0,0,1-6.37-6.4,20.151,20.151,0,0,1-2.275-9.815,20.341,20.341,0,0,1,2.275-9.847,15.506,15.506,0,0,1,6.37-6.4A19.4,19.4,0,0,1,96.72-36.465Zm55.445,23.92a12.443,12.443,0,0,1-1.755,6.467,12.605,12.605,0,0,1-5.2,4.745A18.029,18.029,0,0,1,136.825.455a21.758,21.758,0,0,1-8.71-1.657,14.728,14.728,0,0,1-6.142-4.778,13.782,13.782,0,0,1-2.632-7.28h9.75a7.45,7.45,0,0,0,2.242,4.648,7.033,7.033,0,0,0,5.1,1.852,5.938,5.938,0,0,0,4.387-1.528,5.323,5.323,0,0,0,1.528-3.932,5.152,5.152,0,0,0-1.235-3.543,9.012,9.012,0,0,0-3.12-2.243q-1.885-.845-5.2-1.95a51.4,51.4,0,0,1-7.02-2.828,12.977,12.977,0,0,1-4.647-4.062A11.639,11.639,0,0,1,119.21-33.8a11.309,11.309,0,0,1,4.257-9.327q4.257-3.412,11.277-3.412,7.28,0,11.6,3.51a13.249,13.249,0,0,1,4.908,9.36h-9.88a6.881,6.881,0,0,0-2.08-4.062,6.458,6.458,0,0,0-4.615-1.592,6.087,6.087,0,0,0-4.1,1.333,4.805,4.805,0,0,0-1.56,3.867,4.809,4.809,0,0,0,1.2,3.348,9.176,9.176,0,0,0,3.055,2.177,50.142,50.142,0,0,0,5.037,1.885A66.977,66.977,0,0,1,145.5-23.79a12.656,12.656,0,0,1,4.712,4.1A12.034,12.034,0,0,1,152.165-12.545Zm22.945-23.92a17.82,17.82,0,0,1,11.6,3.77,16.47,16.47,0,0,1,5.818,10.27h-9.685a7.477,7.477,0,0,0-2.665-4.517,8.184,8.184,0,0,0-5.265-1.658,7.854,7.854,0,0,0-6.077,2.7q-2.437,2.7-2.437,7.9t2.438,7.9a7.854,7.854,0,0,0,6.077,2.7,8.184,8.184,0,0,0,5.265-1.657,7.477,7.477,0,0,0,2.665-4.517h9.685a16.47,16.47,0,0,1-5.818,10.27,17.82,17.82,0,0,1-11.6,3.77,19.168,19.168,0,0,1-9.36-2.243,15.763,15.763,0,0,1-6.37-6.4,20.151,20.151,0,0,1-2.275-9.815,20.341,20.341,0,0,1,2.275-9.847,15.506,15.506,0,0,1,6.37-6.4A19.4,19.4,0,0,1,175.11-36.465Zm38.025,0a13.839,13.839,0,0,1,7.8,2.145,11.682,11.682,0,0,1,4.615,5.785V-36.01h9.1V0h-9.1V-7.54a11.855,11.855,0,0,1-4.615,5.818,13.685,13.685,0,0,1-7.8,2.178,15.468,15.468,0,0,1-8.19-2.21,14.931,14.931,0,0,1-5.687-6.4,22.2,22.2,0,0,1-2.048-9.848,22.2,22.2,0,0,1,2.048-9.847,14.931,14.931,0,0,1,5.688-6.4A15.468,15.468,0,0,1,213.135-36.465Zm2.86,8a8.964,8.964,0,0,0-6.89,2.8,10.821,10.821,0,0,0-2.6,7.67,10.7,10.7,0,0,0,2.6,7.638,9.017,9.017,0,0,0,6.89,2.762,9.068,9.068,0,0,0,6.857-2.827,10.514,10.514,0,0,0,2.7-7.573,10.606,10.606,0,0,0-2.7-7.638A9.068,9.068,0,0,0,215.995-28.47Zm48.425-8.06a12.751,12.751,0,0,1,9.945,4.1q3.705,4.095,3.705,11.5V0h-9.1V-19.89a9.4,9.4,0,0,0-2.21-6.663,7.858,7.858,0,0,0-6.045-2.372,8.084,8.084,0,0,0-6.24,2.535q-2.34,2.535-2.34,7.28V0H242.97V-36.01h9.165V-28.8a11.473,11.473,0,0,1,4.713-5.687A14.008,14.008,0,0,1,264.42-36.53Z" transform="translate(358 280)" fill="#ffffff"/>
  </g>
</svg>