<svg width="611" height="430" viewBox="0 0 611 430" fill="none" xmlns="http://www.w3.org/2000/svg">
<g filter="url(#filter0_dddii)">
<path d="M208 45C208 43.3431 206.657 42 205 42C203.343 42 202 43.3431 202 45V214C202 218.418 198.418 222 194 222H25C23.3431 222 22 223.343 22 225C22 226.657 23.3431 228 25 228H194C198.418 228 202 231.582 202 236V405C202 406.657 203.343 408 205 408C206.657 408 208 406.657 208 405V236C208 231.582 211.582 228 216 228H566C567.657 228 569 226.657 569 225C569 223.343 567.657 222 566 222H216C211.582 222 208 218.418 208 214V45Z" fill="url(#paint0_linear)"/>
</g>
<defs>
<filter id="filter0_dddii" x="0" y="0" width="611" height="430" filterUnits="userSpaceOnUse" color-interpolation-filters="sRGB">
<feFlood flood-opacity="0" result="BackgroundImageFix"/>
<feColorMatrix in="SourceAlpha" type="matrix" values="0 0 0 0 0 0 0 0 0 0 0 0 0 0 0 0 0 0 127 0"/>
<feOffset dx="10" dy="-10"/>
<feGaussianBlur stdDeviation="16"/>
<feColorMatrix type="matrix" values="0 0 0 0 0.2 0 0 0 0 0 0 0 0 0 1 0 0 0 0.29 0"/>
<feBlend mode="normal" in2="BackgroundImageFix" result="effect1_dropShadow"/>
<feColorMatrix in="SourceAlpha" type="matrix" values="0 0 0 0 0 0 0 0 0 0 0 0 0 0 0 0 0 0 127 0"/>
<feOffset dy="-3"/>
<feGaussianBlur stdDeviation="3.5"/>
<feColorMatrix type="matrix" values="0 0 0 0 0.14 0 0 0 0 0 0 0 0 0 1 0 0 0 0.3 0"/>
<feBlend mode="normal" in2="effect1_dropShadow" result="effect2_dropShadow"/>
<feColorMatrix in="SourceAlpha" type="matrix" values="0 0 0 0 0 0 0 0 0 0 0 0 0 0 0 0 0 0 127 0"/>
<feOffset dy="2"/>
<feGaussianBlur stdDeviation="1"/>
<feColorMatrix type="matrix" values="0 0 0 0 0.0383444 0 0 0 0 0.0213889 0 0 0 0 0.233333 0 0 0 0.8 0"/>
<feBlend mode="normal" in2="effect2_dropShadow" result="effect3_dropShadow"/>
<feBlend mode="normal" in="SourceGraphic" in2="effect3_dropShadow" result="shape"/>
<feColorMatrix in="SourceAlpha" type="matrix" values="0 0 0 0 0 0 0 0 0 0 0 0 0 0 0 0 0 0 127 0" result="hardAlpha"/>
<feOffset dy="-1"/>
<feGaussianBlur stdDeviation="1.5"/>
<feComposite in2="hardAlpha" operator="arithmetic" k2="-1" k3="1"/>
<feColorMatrix type="matrix" values="0 0 0 0 0.7125 0 0 0 0 0.242844 0 0 0 0 0.0415625 0 0 0 0.58 0"/>
<feBlend mode="color-burn" in2="shape" result="effect4_innerShadow"/>
<feColorMatrix in="SourceAlpha" type="matrix" values="0 0 0 0 0 0 0 0 0 0 0 0 0 0 0 0 0 0 127 0" result="hardAlpha"/>
<feOffset dy="1"/>
<feGaussianBlur stdDeviation="1"/>
<feComposite in2="hardAlpha" operator="arithmetic" k2="-1" k3="1"/>
<feColorMatrix type="matrix" values="0 0 0 0 0.0358507 0 0 0 0 0.107245 0 0 0 0 0.245833 0 0 0 1 0"/>
<feBlend mode="multiply" in2="effect4_innerShadow" result="effect5_innerShadow"/>
</filter>
<linearGradient id="paint0_linear" x1="405.5" y1="42" x2="27" y2="225" gradientUnits="userSpaceOnUse">
<stop offset="0.0677083" stop-color="#FB68DB"/>
<stop offset="0.416667" stop-color="#93EFA0"/>
<stop offset="0.609375" stop-color="#7D40FF"/>
<stop offset="1" stop-color="#FFB545"/>
</linearGradient>
</defs>
</svg>
