<svg width="605" height="430" viewBox="0 0 605 430" fill="none" xmlns="http://www.w3.org/2000/svg">
<g filter="url(#filter0_dddii)">
<path d="M383 45C383 43.3431 381.657 42 380 42C378.343 42 377 43.3431 377 45V214C377 218.418 373.418 222 369 222H25C23.3431 222 22 223.343 22 225C22 226.657 23.3431 228 25 228H369C373.418 228 377 231.582 377 236V405C377 406.657 378.343 408 380 408C381.657 408 383 406.657 383 405V236C383 231.582 386.582 228 391 228H560C561.657 228 563 226.657 563 225C563 223.343 561.657 222 560 222H391C386.582 222 383 218.418 383 214V45Z" fill="url(#paint0_linear)"/>
</g>
<defs>
<filter id="filter0_dddii" x="0" y="0" width="605" height="430" filterUnits="userSpaceOnUse" color-interpolation-filters="sRGB">
<feFlood flood-opacity="0" result="BackgroundImageFix"/>
<feColorMatrix in="SourceAlpha" type="matrix" values="0 0 0 0 0 0 0 0 0 0 0 0 0 0 0 0 0 0 127 0"/>
<feOffset dx="10" dy="-10"/>
<feGaussianBlur stdDeviation="16"/>
<feColorMatrix type="matrix" values="0 0 0 0 0.2 0 0 0 0 0 0 0 0 0 1 0 0 0 0.29 0"/>
<feBlend mode="normal" in2="BackgroundImageFix" result="effect1_dropShadow"/>
<feColorMatrix in="SourceAlpha" type="matrix" values="0 0 0 0 0 0 0 0 0 0 0 0 0 0 0 0 0 0 127 0"/>
<feOffset dy="-3"/>
<feGaussianBlur stdDeviation="3.5"/>
<feColorMatrix type="matrix" values="0 0 0 0 0.14 0 0 0 0 0 0 0 0 0 1 0 0 0 0.3 0"/>
<feBlend mode="normal" in2="effect1_dropShadow" result="effect2_dropShadow"/>
<feColorMatrix in="SourceAlpha" type="matrix" values="0 0 0 0 0 0 0 0 0 0 0 0 0 0 0 0 0 0 127 0"/>
<feOffset dy="2"/>
<feGaussianBlur stdDeviation="1"/>
<feColorMatrix type="matrix" values="0 0 0 0 0.0383444 0 0 0 0 0.0213889 0 0 0 0 0.233333 0 0 0 0.8 0"/>
<feBlend mode="normal" in2="effect2_dropShadow" result="effect3_dropShadow"/>
<feBlend mode="normal" in="SourceGraphic" in2="effect3_dropShadow" result="shape"/>
<feColorMatrix in="SourceAlpha" type="matrix" values="0 0 0 0 0 0 0 0 0 0 0 0 0 0 0 0 0 0 127 0" result="hardAlpha"/>
<feOffset dy="-1"/>
<feGaussianBlur stdDeviation="1.5"/>
<feComposite in2="hardAlpha" operator="arithmetic" k2="-1" k3="1"/>
<feColorMatrix type="matrix" values="0 0 0 0 0.7125 0 0 0 0 0.242844 0 0 0 0 0.0415625 0 0 0 0.58 0"/>
<feBlend mode="color-burn" in2="shape" result="effect4_innerShadow"/>
<feColorMatrix in="SourceAlpha" type="matrix" values="0 0 0 0 0 0 0 0 0 0 0 0 0 0 0 0 0 0 127 0" result="hardAlpha"/>
<feOffset dy="1"/>
<feGaussianBlur stdDeviation="1"/>
<feComposite in2="hardAlpha" operator="arithmetic" k2="-1" k3="1"/>
<feColorMatrix type="matrix" values="0 0 0 0 0.0358507 0 0 0 0 0.107245 0 0 0 0 0.245833 0 0 0 1 0"/>
<feBlend mode="multiply" in2="effect4_innerShadow" result="effect5_innerShadow"/>
</filter>
<linearGradient id="paint0_linear" x1="383" y1="71.9999" x2="52.5" y2="212.5" gradientUnits="userSpaceOnUse">
<stop stop-color="#9AF5A4"/>
<stop offset="0.260417" stop-color="#FF975C"/>
<stop offset="0.552083" stop-color="#FF8A9E"/>
<stop offset="0.776042" stop-color="#B95CFF"/>
<stop offset="1" stop-color="#4F8BFF"/>
</linearGradient>
</defs>
</svg>
