<svg width="24" height="24" viewBox="0 0 24 24" fill="none" xmlns="http://www.w3.org/2000/svg">
<g filter="url(#filter0_ii)">
<path d="M10.8 5.07138C10.8 4.79523 10.5761 4.57138 10.3 4.57138H8.45001C7.99865 4.57138 7.77834 4.02058 8.10519 3.7093L11.6552 0.328401C11.8483 0.144496 12.1517 0.144496 12.3448 0.328401L15.8948 3.70931C16.2217 4.02058 16.0013 4.57138 15.55 4.57138H13.7C13.4239 4.57138 13.2 4.79523 13.2 5.07138V9.34719C13.2 9.52491 13.1051 9.68848 12.9542 9.78234C12.5196 10.0526 12.1085 10.3529 11.7224 10.6805C11.3753 10.975 10.8 10.7416 10.8 10.2864V5.07138ZM23.6124 11.7903C23.8227 11.594 23.8243 11.2611 23.616 11.0627L20.0448 7.66165C19.7265 7.35848 19.2 7.58413 19.2 8.02372V9.76563C19.2 10.0494 18.9638 10.2749 18.6801 10.2811C16.7794 10.3229 14.9482 11.0012 13.5137 12.2054C12.0345 13.4471 11.085 15.1575 10.8362 17.0129C10.8098 17.2093 10.6775 17.3751 10.4961 17.4548C9.735 17.7891 9.11642 18.3672 8.75216 19.0933C8.34052 19.9137 8.28724 20.8562 8.604 21.714C8.92347 22.571 9.58664 23.2723 10.4482 23.6643C11.3097 24.0564 12.2993 24.1071 13.2 23.8054C14.099 23.5002 14.8346 22.8685 15.2461 22.0483C15.6575 21.2282 15.7114 20.2862 15.396 19.4283C15.0818 18.5706 14.4203 17.8782 13.579 17.488C13.3635 17.388 13.2187 17.1667 13.2627 16.9333C13.9321 13.3824 17.3003 12.692 18.6429 12.5645C18.9178 12.5384 19.14 12.7609 19.14 13.037V14.8147C19.14 15.252 19.6616 15.4786 19.9812 15.1802L23.6124 11.7903ZM10.0565 12.5166C10.2143 12.2848 10.1709 11.965 9.93608 11.8118C8.56311 10.9161 6.95932 10.3935 5.29771 10.3005C5.0228 10.2851 4.8 10.063 4.8 9.78764V8.02372C4.8 7.58412 4.2735 7.35848 3.95517 7.66165L0.380179 11.0664C0.173279 11.2634 0.17328 11.5935 0.380179 11.7905L3.95518 15.1952C4.27351 15.4984 4.8 15.2728 4.8 14.8332V13.0821C4.8 12.8017 5.03073 12.5745 5.30995 12.5992C6.50208 12.7048 7.64413 13.0915 8.62025 13.7547C8.90127 13.9457 9.3007 13.8485 9.45291 13.5448C9.63024 13.1909 9.83144 12.8472 10.0565 12.5166Z" fill="#A6FFAD"/>
</g>
<defs>
<filter id="filter0_ii" x="0.224976" y="-0.809509" width="23.5462" height="25.8095" filterUnits="userSpaceOnUse" color-interpolation-filters="sRGB">
<feFlood flood-opacity="0" result="BackgroundImageFix"/>
<feBlend mode="normal" in="SourceGraphic" in2="BackgroundImageFix" result="shape"/>
<feColorMatrix in="SourceAlpha" type="matrix" values="0 0 0 0 0 0 0 0 0 0 0 0 0 0 0 0 0 0 127 0" result="hardAlpha"/>
<feOffset dy="-1"/>
<feGaussianBlur stdDeviation="1.5"/>
<feComposite in2="hardAlpha" operator="arithmetic" k2="-1" k3="1"/>
<feColorMatrix type="matrix" values="0 0 0 0 0.0392361 0 0 0 0 0.470833 0 0 0 0 0.393146 0 0 0 1 0"/>
<feBlend mode="multiply" in2="shape" result="effect1_innerShadow"/>
<feColorMatrix in="SourceAlpha" type="matrix" values="0 0 0 0 0 0 0 0 0 0 0 0 0 0 0 0 0 0 127 0" result="hardAlpha"/>
<feOffset dy="1"/>
<feGaussianBlur stdDeviation="1"/>
<feComposite in2="hardAlpha" operator="arithmetic" k2="-1" k3="1"/>
<feColorMatrix type="matrix" values="0 0 0 0 0.260547 0 0 0 0 0.479167 0 0 0 0 0.0419271 0 0 0 0.72 0"/>
<feBlend mode="normal" in2="effect1_innerShadow" result="effect2_innerShadow"/>
</filter>
</defs>
</svg>
